<svg width="235" height="28" viewBox="0 0 235 28" xmlns="http://www.w3.org/2000/svg">
<path d="M9.85875 1.30602C6.57512 1.30602 3.28625 1.22996 0 1.11719C0.115399 1.53682 0.188835 1.91974 0.188835 2.30003C0.188835 2.71966 0.115399 3.13929 0 3.52221C2.14275 3.25469 5.53915 3.09995 8.17759 3.09995C8.25365 5.73839 8.29824 8.37946 8.29824 11.0127V17.5825C8.29824 20.8662 8.1435 24.1917 7.99401 27.478C8.63919 27.3626 9.24766 27.2892 9.85875 27.2892C10.4698 27.2892 11.0809 27.3626 11.7287 27.478C11.5766 24.1917 11.4219 20.8662 11.4219 17.5825V11.0127C11.4219 8.37684 11.4612 5.73577 11.5373 3.09995C14.1731 3.09995 17.5747 3.25469 19.7149 3.52221C19.5995 3.13929 19.5234 2.71966 19.5234 2.33937C19.5234 1.91974 19.5995 1.53682 19.7149 1.11719C16.426 1.22996 13.1371 1.30602 9.85613 1.30602H9.85875Z" />
<path d="M48.9417 4.77316V4.7207L48.8944 4.72857C48.2729 4.83873 47.7614 4.89118 47.2894 4.89118C46.8173 4.89118 46.3032 4.83873 45.6921 4.72857L45.6344 4.7207V4.77316C45.7682 7.54798 45.8941 10.4198 45.8941 13.2838V14.3932C45.8154 14.3932 43.6543 14.4326 43.6543 14.4326L39.0672 14.4929L34.4853 14.4326C34.4853 14.4326 32.319 14.3932 32.2403 14.3932V13.2838C32.2403 10.5588 32.3609 7.81549 32.5025 4.77316L32.5078 4.7207L32.4527 4.72857C31.8338 4.83873 31.3223 4.89118 30.8476 4.89118C30.3729 4.89118 29.8615 4.83873 29.2478 4.72857L29.1953 4.7207V4.77316L29.1979 4.88069C29.3291 7.63715 29.4628 10.4933 29.4628 13.2838V18.941C29.4628 21.7342 29.3291 24.5956 29.1979 27.3599V27.5068L29.2478 27.4989C29.8667 27.3861 30.3729 27.3363 30.8476 27.3363C31.3223 27.3363 31.8338 27.3861 32.4527 27.4989L32.5078 27.5068L32.5025 27.4543C32.3609 24.412 32.2403 21.6686 32.2403 18.941V16.0219C32.3058 16.0193 32.5681 16.0167 32.5681 16.0167L39.0672 15.9564L45.5741 16.0167C45.5741 16.0167 45.8285 16.0167 45.8941 16.0219V18.941C45.8941 21.8024 45.7682 24.6769 45.6344 27.4543V27.5068L45.6921 27.4989C46.3111 27.3861 46.8173 27.3363 47.2894 27.3363C47.7614 27.3363 48.2676 27.3861 48.8944 27.4989L48.9417 27.5068V27.4543C48.8105 24.6585 48.6794 21.7683 48.6794 18.941V13.2838C48.6794 10.4566 48.8131 7.56896 48.9417 4.77316Z" />
<path d="M76.0321 25.4297L75.9666 25.4402C73.9969 25.8179 70.4038 25.8677 67.1412 25.8677C67.1149 25.1596 67.0756 23.6122 67.0756 20.979C67.0756 17.8947 67.0756 17.0318 67.1097 16.2529C68.463 16.2529 72.6987 16.3106 75.0512 16.5492L75.1116 16.5597L75.0985 16.4994C75.0329 16.1794 74.9962 15.8516 74.9962 15.5238C74.9962 15.1959 75.0355 14.8261 75.0985 14.5114L75.1116 14.4537L75.0539 14.4589C73.0396 14.632 70.9126 14.7868 67.1097 14.7868C67.1097 14.7107 67.0992 13.402 67.0992 13.402L67.0756 10.4934L67.149 7.91004C67.149 7.91004 67.2041 6.4387 67.2041 6.36002C70.5297 6.36002 72.2056 6.49902 74.1412 6.65901L75.8669 6.79277L75.8538 6.73507C75.7882 6.40198 75.7515 6.07677 75.7515 5.7568C75.7515 5.43683 75.7856 5.10899 75.8538 4.78115L75.8669 4.72607H75.8092C73.6769 4.83623 71.7624 4.8913 69.9579 4.8913C68.1535 4.8913 66.2678 4.83885 64.07 4.7287H64.0254V4.77328C64.1749 7.77628 64.2929 10.4908 64.2929 13.2499V18.9097C64.2929 21.8287 64.1513 24.8186 64.028 27.4518V27.499L64.07 27.4964C66.3203 27.3836 68.2217 27.3338 70.0524 27.3338C71.883 27.3338 73.8238 27.3889 75.9718 27.4964H76.0269L76.019 27.4439C75.9535 27.1659 75.9141 26.8171 75.9141 26.5024C75.9141 26.227 75.9482 25.7916 76.019 25.4927L76.0321 25.4323V25.4297Z" />
<path d="M93.0386 6.29712C93.0386 3.44099 95.1499 1.45036 98.0795 1.45036C101.009 1.45036 102.187 3.67703 102.73 5.12214H103.204C103.516 3.64032 103.792 2.74073 104.259 1.84114C102.695 0.584863 100.936 0 98.4729 0C93.2721 0 89.9911 3.05283 89.9911 7.39341C89.9911 16.5807 102.302 13.4912 102.302 20.6853C102.302 23.8168 100.193 26.3582 96.713 26.3582C93.2327 26.3582 91.3942 24.1263 90.534 22.2904H90.0619C89.9071 23.7774 89.7917 24.5564 89.3223 25.7681C90.6939 26.8617 92.5298 28 95.7741 28C101.796 28 105.352 23.9715 105.352 19.2034C105.352 10.5643 93.036 13.6092 93.036 6.29974L93.0386 6.29712Z"/>
<path d="M137.81 5.31359L137.836 4.72086L137.784 4.72873C137.162 4.83888 136.656 4.89134 136.179 4.89134C135.701 4.89134 135.203 4.83888 134.579 4.72873L134.529 4.72086V4.77332C134.663 7.55601 134.791 10.4279 134.791 13.284V14.3934C134.71 14.3934 132.551 14.4327 132.551 14.4327L127.962 14.4931L123.375 14.4327C123.375 14.4327 121.213 14.3934 121.137 14.3934V13.284C121.137 10.4698 121.269 7.59535 121.397 4.81528V4.68677C120.778 4.79954 120.214 4.89396 119.747 4.89396C119.281 4.89396 118.759 4.84151 118.145 4.73135L118.09 4.72349L118.095 4.77594L118.106 4.97002C118.229 7.70026 118.357 10.5249 118.357 13.2866V18.9438C118.357 21.7081 118.229 24.5328 118.106 27.2709L118.09 27.5069L118.145 27.4991C118.764 27.3863 119.275 27.3365 119.747 27.3365C120.219 27.3365 120.713 27.3863 121.347 27.4991L121.4 27.5069V27.423C121.269 24.6351 121.14 21.7553 121.14 18.9412V16.0221C121.2 16.0195 121.452 16.0169 121.452 16.0169L127.964 15.9565L134.471 16.0169C134.471 16.0169 134.726 16.0169 134.794 16.0221V18.9412C134.794 21.7947 134.663 24.6718 134.532 27.4545V27.5069L134.581 27.4991C135.206 27.3863 135.714 27.3365 136.181 27.3365C136.648 27.3365 137.162 27.3863 137.786 27.4991L137.839 27.5069L137.813 26.9221C137.695 24.2994 137.574 21.5875 137.574 18.9438V13.2866C137.574 10.6377 137.695 7.93368 137.813 5.31622L137.81 5.31359Z"/>
<path d="M156.383 5.08008L156.399 4.72339L156.347 4.73126C155.725 4.84141 155.216 4.89386 154.749 4.89386C154.283 4.89386 153.763 4.84141 153.142 4.73126L153.092 4.72339V4.77584C153.22 7.55066 153.351 10.4225 153.351 13.2865V18.9437C153.351 21.8051 153.22 24.6795 153.094 27.457V27.5095L153.142 27.5016C153.763 27.3888 154.269 27.339 154.749 27.339C155.229 27.339 155.715 27.3888 156.347 27.5016L156.399 27.5095L156.383 27.1606C156.263 24.4645 156.134 21.6713 156.134 18.9437V13.2865C156.134 10.5615 156.263 7.77359 156.383 5.0827V5.08008Z"/>
<path d="M184.096 25.4322L184.031 25.4401C180.758 25.8676 178.088 25.8676 174.998 25.8676C174.998 25.7889 174.974 23.6619 174.974 23.6619L174.904 13.2838C174.904 10.4959 175.035 7.64502 175.163 4.89118L175.174 4.7207L175.119 4.72857C174.5 4.83873 173.991 4.89118 173.519 4.89118C173.047 4.89118 172.533 4.83873 171.911 4.72857L171.861 4.7207V4.77316L171.872 5.08001C171.992 7.77091 172.121 10.5588 172.121 13.2838V18.941C172.121 21.6686 171.992 24.4592 171.872 27.1579L171.861 27.5015H171.903C174.185 27.3861 176.121 27.3363 177.988 27.3363C179.855 27.3363 181.817 27.3914 184.031 27.4989H184.096L184.078 27.4438C183.965 27.0871 183.915 26.7672 183.915 26.4682C183.915 26.1692 183.962 25.8466 184.078 25.4925L184.096 25.4322Z" />
<path d="M206.633 25.4322L206.57 25.4401C203.304 25.8676 200.635 25.8676 197.55 25.8676C197.545 25.7915 197.527 23.9845 197.527 23.9845L197.443 13.2838C197.443 10.4015 197.587 7.4116 197.71 4.77316V4.7207L197.658 4.72857C197.036 4.83873 196.53 4.89118 196.058 4.89118C195.586 4.89118 195.082 4.83873 194.45 4.72857L194.4 4.7207V4.77316C194.547 7.81549 194.665 10.5588 194.665 13.2838V18.941C194.665 21.6686 194.547 24.412 194.403 27.4543V27.5015L194.448 27.4989C196.732 27.3861 198.662 27.3363 200.524 27.3363C202.387 27.3363 204.364 27.3914 206.578 27.4989H206.635L206.62 27.4438C206.509 27.0662 206.457 26.754 206.457 26.4682C206.457 26.1823 206.509 25.8702 206.62 25.4925L206.635 25.4322H206.633Z" />
<path d="M224.557 4.46645C224.35 3.93928 224.224 3.6062 224.224 3.6062C223.689 4.43235 222.328 5.8932 221.958 6.25251C221.958 6.25251 222.199 6.66952 222.556 7.30946L213.57 27.583C214.968 27.1292 216.093 27.638 216.093 27.638C216.093 27.638 217.78 23.0693 219.248 19.3608C220.888 19.2192 225.404 19.3844 225.404 19.3844C225.404 19.3844 225.514 18.9569 225.609 18.6028C225.706 18.2461 225.965 17.7452 225.965 17.7452C225.965 17.7452 221.459 17.8658 219.873 17.8134C221.056 14.8996 223.447 9.11126 223.447 9.11126C223.447 9.11126 225.231 13.2315 227.405 18.435C230.054 24.7872 230.914 27.5908 230.914 27.5908C232.981 27.1424 234.476 27.6171 234.476 27.6171L224.562 4.46383L224.557 4.46645Z" />
</svg>
